<?xml version="1.0" encoding="utf-8"?>
<!-- Generator: Adobe Illustrator 16.0.0, SVG Export Plug-In . SVG Version: 6.00 Build 0)  -->
<!DOCTYPE svg PUBLIC "-//W3C//DTD SVG 1.1//EN" "http://www.w3.org/Graphics/SVG/1.1/DTD/svg11.dtd">
<svg version="1.1" id="Layer_1" xmlns="http://www.w3.org/2000/svg" xmlns:xlink="http://www.w3.org/1999/xlink" x="0px" y="0px"
	 width="100px" height="100px" viewBox="0 0 100 100" enable-background="new 0 0 100 100" xml:space="preserve">
<g>
	<path fill="#00ADEE" d="M24.192,50.242c-2.672,7.125-4.327,13.457-4.962,18.997c-0.127,1.207-0.19,2.386-0.19,3.529
		c0,3.501,0.54,6.494,1.624,8.971c2.417,5.732,7.192,8.595,14.314,8.595c8.403,0,17.441-3.505,27.111-10.5
		c9.039-6.492,15.528-14.354,19.476-23.578c1.718-4.712,2.576-8.608,2.576-11.692c0-3.092-0.347-5.651-1.049-7.688
		c-1.847-5.216-5.125-8.943-9.837-11.167c-2.54-1.214-5.011-1.814-7.396-1.814s-4.69,0.48-6.917,1.433
		c-6.685,2.795-11.583,7.03-14.703,12.691c-1.778,3.12-2.672,5.714-2.672,7.786c0,2.064,0.286,3.769,0.858,5.102
		c1.337,3.185,3.854,4.773,7.545,4.773c0.763,0,1.524-0.064,2.287-0.191c2.167-0.254,2.993-0.729,2.484-1.429
		c-0.317-0.512-0.894-0.717-1.722-0.618c-0.822,0.093-1.525,0.142-2.098,0.142c-4.135,0-6.204-2.199-6.204-6.586
		c0-2.802,1.113-6.077,3.339-9.832c4.39-7.447,10.023-11.17,16.898-11.17c1.973,0,3.91,0.477,5.823,1.429
		c5.47,2.612,8.209,8.019,8.209,16.228c0,2.866-0.825,6.748-2.484,11.646c-0.953,2.675-2.386,5.441-4.296,8.308
		c-4.838,7.257-10.93,13.207-18.281,17.851c-7.351,4.646-13.442,6.968-18.277,6.968c-7.511,0-11.266-4.554-11.266-13.651
		c0-7.638,3.247-19.792,9.737-36.464c5.093-13.171,9.738-23.004,13.938-29.498c0.063-0.254,0.096-0.477,0.096-0.671
		c-0.125-1.017-0.985-1.525-2.577-1.525c-2.736,0-4.518,0.925-5.347,2.768c-0.19,0.511-0.43,1.052-0.713,1.623
		c-0.289,0.572-0.511,1.052-0.67,1.434C38.687,12.821,24.637,49.03,24.192,50.242z"/>
	
		<radialGradient id="SVGID_1_" cx="-9087.3398" cy="996.9219" r="199.2242" gradientTransform="matrix(-0.5161 -0.8566 0.8566 -0.5161 -5592.9663 -7268.4824)" gradientUnits="userSpaceOnUse">
		<stop  offset="0" style="stop-color:#00ADEE"/>
		<stop  offset="0.2" style="stop-color:#0094D9"/>
		<stop  offset="1" style="stop-color:#005BA9"/>
	</radialGradient>
	<path fill="url(#SVGID_1_)" d="M60.269,25.738c0,0,1.651,2.848,2.907,4.93c1.963,3.261,3.957,8.424,2.299,14.516
		c-0.731,2.696-2.139,5.35-4.18,7.885c-0.818,1.009-1.74,2.007-2.734,2.97l-0.021,0.022l-0.024,0.018
		c-3.894,3.347-8.185,6.765-8.869,12.969l-0.042,3.636l-1.592-2.957c-0.551-1.023-3.399-6.462-5.312-13.249
		c-0.854-3.021-1.398-5.873-1.624-8.477c-0.48-5.421,0.372-9.96,2.535-13.496c2.692-4.419,7.408-7.221,14.011-8.33L60.269,25.738
		L60.269,25.738z"/>
	
		<linearGradient id="SVGID_2_" gradientUnits="userSpaceOnUse" x1="3162.0801" y1="-1289.7139" x2="3179.438" y2="-1365.4574" gradientTransform="matrix(0.7991 0.6012 0.6012 -0.7991 -1673.321 -2944.5422)">
		<stop  offset="0" style="stop-color:#006937"/>
		<stop  offset="0.5377" style="stop-color:#83C341"/>
		<stop  offset="0.5874" style="stop-color:#8AC64C"/>
		<stop  offset="0.6738" style="stop-color:#9CCF68"/>
		<stop  offset="0.7866" style="stop-color:#BBDE96"/>
		<stop  offset="0.9199" style="stop-color:#E4F2D6"/>
		<stop  offset="1" style="stop-color:#FFFFFF"/>
	</linearGradient>
	<path fill="url(#SVGID_2_)" d="M55.189,31.208c1.504-2.491,2.612-3.967,2.612-3.967c-6.845,1.144-10.973,4.045-13.274,7.824
		c-2.273,3.717-2.788,8.276-2.379,12.844c0.24,2.815,0.845,5.646,1.585,8.276c2.001,7.09,5.068,12.74,5.23,13.039
		c-1.779-4.826,8.849-13.96,8.849-13.96c1.002-0.968,1.881-1.928,2.646-2.874c2.096-2.597,3.331-5.117,3.974-7.489
		c2.626-9.621-4.524-16.827-4.524-16.827c-1.066,1.292-2.029,2.576-2.915,3.854c2.52,1.482,4.828,5.104,6.18,12.532
		c-0.223-0.942-2.136-8.572-7.172-11.092c-0.604,0.924-1.161,1.835-1.68,2.739c4.655,4.91,5.343,15.346,5.358,15.669
		c-0.064-0.346-2.238-11.335-6.223-14.117c-1.482,2.76-2.598,5.411-3.438,7.905c2.047,3.495,3.614,10.787,3.706,11.23
		c-0.176-0.48-2.703-7.481-4.27-9.443c-2.901,9.878-1.5,16.834-1.5,16.834c-1.059-3.385-1.292-6.911-0.979-10.376
		c-0.455,0.474-1.164,1.229-2.032,2.191c0,0,0.875-2.191,2.163-3.444c0.526-4.202,1.8-8.29,3.29-11.912
		c-1.903,1.363-6.236,4.667-7.507,7.2c0,0,2.195-6.148,8.393-9.26c0.995-2.195,2.043-4.172,3-5.834
		c-2.422-0.546-5.428,0.042-9.138,2.665C45.446,35.104,50.386,30.135,55.189,31.208z"/>
	<g>
		
			<radialGradient id="SVGID_3_" cx="-9381.3057" cy="-5546.9634" r="14.0087" gradientTransform="matrix(-1 0 0 -1 -9304.168 -5490.7627)" gradientUnits="userSpaceOnUse">
			<stop  offset="0" style="stop-color:#FFFFFF"/>
			<stop  offset="0.56" style="stop-color:#B1D7F2"/>
			<stop  offset="1" style="stop-color:#0094D9"/>
		</radialGradient>
		<path fill-rule="evenodd" clip-rule="evenodd" fill="url(#SVGID_3_)" d="M76.537,54.466c-3.26-1.476-7.101-1.869-8.378,2.005
			c-1.276,3.871,1.384,8.118,4.646,9.585c3.257,1.469,6.843,0.23,8.004-2.767C81.971,60.289,79.799,55.928,76.537,54.466z"/>
		
			<radialGradient id="SVGID_4_" cx="-9380.2314" cy="-5548.6709" r="11.1794" gradientTransform="matrix(-1 0 0 -1 -9304.168 -5490.7627)" gradientUnits="userSpaceOnUse">
			<stop  offset="0" style="stop-color:#FFFFFF"/>
			<stop  offset="0.61" style="stop-color:#B1D7F2"/>
			<stop  offset="1" style="stop-color:#0094D9"/>
		</radialGradient>
		<path fill-rule="evenodd" clip-rule="evenodd" fill="url(#SVGID_4_)" d="M76.537,54.466c-3.26-1.476-7.457-2.252-8.734,1.623
			c-1.273,3.869,3,7.624,6.261,9.093c-3.631-3.227-3.825-8.881,2.511-5.362C82.916,63.339,79.799,55.928,76.537,54.466z"/>
		
			<radialGradient id="SVGID_5_" cx="-9383.4521" cy="-5545.0845" r="8.6233" gradientTransform="matrix(-1 0 0 -1 -9304.168 -5490.7627)" gradientUnits="userSpaceOnUse">
			<stop  offset="0" style="stop-color:#00ADEE"/>
			<stop  offset="0.45" style="stop-color:#0094D9"/>
			<stop  offset="1" style="stop-color:#005BA9"/>
		</radialGradient>
		<path fill-rule="evenodd" clip-rule="evenodd" fill="url(#SVGID_5_)" d="M75.427,53.216c-2.848-1.308-6.568-0.832-7.839,1.809
			c-2.386,4.955,2.81,10.396,6.211,11.384c-3.677-1.579-5.483-4.375-5.78-6.91c-0.219-1.831,0.219-3.504,1.172-4.537
			c2.22-2.401,8.011-1.095,10.813,2.949c0.632,0.918,1.066,2.069,1.12,3.794C81.164,58.612,79.806,55.225,75.427,53.216z"/>
		<path fill-rule="evenodd" clip-rule="evenodd" fill="#FFFFFF" d="M79.263,61.059c-0.184-1.531-3.445-2.217-4.577-0.968
			C73.327,61.581,79.735,64.948,79.263,61.059z"/>
		
			<linearGradient id="SVGID_6_" gradientUnits="userSpaceOnUse" x1="-9389.8242" y1="-5554.3438" x2="-9383.0234" y2="-5551.457" gradientTransform="matrix(-1 0 0 -1 -9304.168 -5490.7627)">
			<stop  offset="0" style="stop-color:#8DD7F7"/>
			<stop  offset="0.53" style="stop-color:#B1D7F2"/>
			<stop  offset="1" style="stop-color:#FFFFFF"/>
		</linearGradient>
		<path fill-rule="evenodd" clip-rule="evenodd" fill="url(#SVGID_6_)" d="M80.073,58.602c-0.154-0.335-1.696,0.269-0.98,1.412
			c0.679,1.08,0.448,3.233-0.682,3.126C79.757,63.89,82.199,63.119,80.073,58.602z"/>
		
			<linearGradient id="SVGID_7_" gradientUnits="userSpaceOnUse" x1="-9373.2441" y1="-5564.1929" x2="-9377.8457" y2="-5547.021" gradientTransform="matrix(-1 0 0 -1 -9304.168 -5490.7627)">
			<stop  offset="0" style="stop-color:#005BA9"/>
			<stop  offset="0.2" style="stop-color:#0095D9"/>
			<stop  offset="0.48" style="stop-color:#B1D7F2"/>
			<stop  offset="1" style="stop-color:#FFFFFF"/>
		</linearGradient>
		<path fill-rule="evenodd" clip-rule="evenodd" fill="url(#SVGID_7_)" d="M75.401,65.728c-1.786-0.039-7.768-5.622-3.483-9.444
			c1.378-1.225,5.043-0.699,4.358-0.935c-4.044-1.405-6.472-0.141-7.221,0.854c-0.578,0.77-0.998,1.822-0.825,3.197
			c0.402,3.156,3.472,5.45,4.495,5.868C76.107,67.016,76.687,65.752,75.401,65.728z"/>
		<path fill-rule="evenodd" clip-rule="evenodd" fill="#FFFFFF" d="M73.693,58.73c-0.208-0.396-0.861-0.299-0.918,0.14
			C72.709,59.385,74.227,59.729,73.693,58.73z"/>
		<path fill-rule="evenodd" clip-rule="evenodd" fill="#FFFFFF" d="M71.718,55.638c-4.521,2.442-1.673,6.801,0.6,8.629
			c0,0-2.139-1.229-2.937-2.764C67.75,58.384,69.367,55.862,71.718,55.638z"/>
	</g>
	<g>
		
			<radialGradient id="SVGID_8_" cx="-9361.7773" cy="-5564.3525" r="15.4815" gradientTransform="matrix(-1 0 0 -1 -9304.168 -5490.7627)" gradientUnits="userSpaceOnUse">
			<stop  offset="0" style="stop-color:#FFFFFF"/>
			<stop  offset="0.56" style="stop-color:#B1D7F2"/>
			<stop  offset="0.78" style="stop-color:#0095D9"/>
			<stop  offset="1" style="stop-color:#005BA9"/>
		</radialGradient>
		<path fill-rule="evenodd" clip-rule="evenodd" fill="url(#SVGID_8_)" d="M67.454,80.73c-2.866,3.346-8.171,4.072-11.837,1.623
			c-3.67-2.455-4.313-7.157-1.447-10.499c2.873-3.343,8.174-4.069,11.844-1.621C69.682,72.69,70.326,77.389,67.454,80.73z"/>
		<path fill-rule="evenodd" clip-rule="evenodd" fill="#0083BA" d="M66.786,80.483c-2.868,3.343-8.29,3.435-10.661,1.405
			c-4.811-2.824-3.578-9-0.213-11.109c-8.49,14.169,13.267,16.117,12.132,3.493c-0.11-1.218-0.445-1.574-1.166-3.085
			C69.367,73.778,69.282,77.579,66.786,80.483z"/>
		
			<linearGradient id="SVGID_9_" gradientUnits="userSpaceOnUse" x1="-9362.2051" y1="-5552.5044" x2="-9367.083" y2="-5567.5186" gradientTransform="matrix(-1 0 0 -1 -9304.168 -5490.7627)">
			<stop  offset="0" style="stop-color:#8DD7F7"/>
			<stop  offset="1" style="stop-color:#FFFFFF"/>
		</linearGradient>
		<path fill-rule="evenodd" clip-rule="evenodd" fill="url(#SVGID_9_)" d="M65.939,70.192c0.456,2.093,1.521,5.054-0.942,6.981
			c-2.464,1.93-7.179,0.451-7.57-1.473c-0.392-1.93,2.171-1.471,5.036-2.467C65.321,72.239,65.939,70.192,65.939,70.192z"/>
		<path fill-rule="evenodd" clip-rule="evenodd" fill="#FFFFFF" d="M59.143,71.061c0.702,0.903-1.014,2.739-2.404,2.583
			C55.08,73.46,57.367,68.776,59.143,71.061z"/>
		<path fill-rule="evenodd" clip-rule="evenodd" fill="#FFFFFF" d="M61.948,71.625c0.367,0.674-1.01,1.681-1.931,1.418
			C58.913,72.733,61.017,69.924,61.948,71.625z"/>
	</g>
	<g>
		
			<radialGradient id="SVGID_10_" cx="-9337.042" cy="-5570.7031" r="15.1035" gradientTransform="matrix(-1 0 0 -1 -9304.168 -5490.7627)" gradientUnits="userSpaceOnUse">
			<stop  offset="0" style="stop-color:#00ADEE"/>
			<stop  offset="0.2" style="stop-color:#0094D9"/>
			<stop  offset="1" style="stop-color:#005BA9"/>
		</radialGradient>
		<path fill-rule="evenodd" clip-rule="evenodd" fill="url(#SVGID_10_)" d="M34.283,64.439c8.241,1.345,13.707,9.12,12.253,14.943
			c-1.458,5.83-7.359,10.326-14.76,8.682c-7.401-1.638-12.401-7.955-11.649-14.393C20.871,67.235,26.783,63.219,34.283,64.439z"/>
		
			<radialGradient id="SVGID_11_" cx="-9333.6738" cy="-5573.9258" r="23.0225" gradientTransform="matrix(-1 0 0 -1 -9304.168 -5490.7627)" gradientUnits="userSpaceOnUse">
			<stop  offset="0" style="stop-color:#FFFFFF"/>
			<stop  offset="0.44" style="stop-color:#B1D7F2"/>
			<stop  offset="0.78" style="stop-color:#0095D9"/>
			<stop  offset="1" style="stop-color:#005BA9"/>
		</radialGradient>
		<path fill-rule="evenodd" clip-rule="evenodd" fill="url(#SVGID_11_)" d="M34.12,66.311c6.688,1.391,11.474,7.372,10.673,13.358
			c-0.794,5.988-6.864,9.716-13.556,8.325c-6.692-1.391-11.471-7.368-10.673-13.358C21.358,68.654,27.432,64.924,34.12,66.311z"/>
		
			<linearGradient id="SVGID_12_" gradientUnits="userSpaceOnUse" x1="-9338.4658" y1="-5561.5464" x2="-9333.0957" y2="-5579.1118" gradientTransform="matrix(-1 0 0 -1 -9304.168 -5490.7627)">
			<stop  offset="0" style="stop-color:#0083BA"/>
			<stop  offset="0.74" style="stop-color:#8BD4F5"/>
			<stop  offset="1" style="stop-color:#FFFFFF"/>
		</linearGradient>
		<path fill-rule="evenodd" clip-rule="evenodd" fill="url(#SVGID_12_)" d="M34.25,67.277c6.685,1.391,10.669,7.909,9.54,12.063
			c-0.498,7.609-9.959,9.975-15.289,7.218c25.739,1.43,12.956-26.197-3.773-16.916c-1.616,0.897-1.877,1.527-3.458,3.347
			C23.099,68.351,28.438,66.071,34.25,67.277z"/>
		
			<linearGradient id="SVGID_13_" gradientUnits="userSpaceOnUse" x1="-9331.7695" y1="-5568.6709" x2="-9342.9355" y2="-5562.4814" gradientTransform="matrix(-1 0 0 -1 -9304.168 -5490.7627)">
			<stop  offset="0" style="stop-color:#8DD7F7"/>
			<stop  offset="1" style="stop-color:#FFFFFF"/>
		</linearGradient>
		<path fill-rule="evenodd" clip-rule="evenodd" fill="url(#SVGID_13_)" d="M26.797,69.924c2.093-1.164,4.771-1.836,8.872-0.007
			c4.102,1.829,8.792,8.213,6.063,8.47c-2.728,0.261-2.901-3.797-6.931-6.748C30.912,68.787,26.797,69.924,26.797,69.924z"/>
		<path fill-rule="evenodd" clip-rule="evenodd" fill="#FFFFFF" d="M26.599,82.452c0.756-1.415,4.525-0.479,5.301,1.3
			C32.825,85.884,24.693,86.046,26.599,82.452z"/>
		<path fill-rule="evenodd" clip-rule="evenodd" fill="#FFFFFF" d="M25.385,78.697c0.674-0.867,3.053,0.17,3.346,1.455
			C29.084,81.69,23.688,80.9,25.385,78.697z"/>
	</g>
</g>
</svg>
